<svg height="20" viewBox="0 0 28 20" width="28" xmlns="http://www.w3.org/2000/svg">
  <defs>
    <rect id="a" height="20" rx="3" width="28"/>
    <mask id="b" fill="#fff">
      <use fill="#fff" fill-rule="evenodd" href="#a"/>
    </mask>
  </defs>
  <g fill="none" fill-rule="evenodd">
    <use fill="#B22234" href="#a"/> <!-- Fondo rojo -->
    <g mask="url(#b)">
      <rect width="28" height="2" y="0" fill="#fff"/>
      <rect width="28" height="2" y="4" fill="#fff"/>
      <rect width="28" height="2" y="8" fill="#fff"/>
      <rect width="28" height="2" y="12" fill="#fff"/>
      <rect width="28" height="2" y="16" fill="#fff"/>
    </g>
    <rect width="11.2" height="10" fill="#3C3B6E" mask="url(#b)"/> <!-- Rectángulo azul -->
    <g fill="#fff">
      <!-- Estrellas -->
      <g transform="translate(1, 1)">
        <g>
          <circle cx="1" cy="1" r="0.3"/>
          <circle cx="3" cy="1" r="0.3"/>
          <circle cx="5" cy="1" r="0.3"/>
          <circle cx="7" cy="1" r="0.3"/>
          <circle cx="9" cy="1" r="0.3"/>
        </g>
        <g transform="translate(0, 2)">
          <circle cx="1" cy="1" r="0.3"/>
          <circle cx="3" cy="1" r="0.3"/>
          <circle cx="5" cy="1" r="0.3"/>
          <circle cx="7" cy="1" r="0.3"/>
          <circle cx="9" cy="1" r="0.3"/>
        </g>
        <g transform="translate(0, 4)">
          <circle cx="1" cy="1" r="0.3"/>
          <circle cx="3" cy="1" r="0.3"/>
          <circle cx="5" cy="1" r="0.3"/>
          <circle cx="7" cy="1" r="0.3"/>
          <circle cx="9" cy="1" r="0.3"/>
        </g>
        <g transform="translate(0, 6)">
          <circle cx="1" cy="1" r="0.3"/>
          <circle cx="3" cy="1" r="0.3"/>
          <circle cx="5" cy="1" r="0.3"/>
          <circle cx="7" cy="1" r="0.3"/>
          <circle cx="9" cy="1" r="0.3"/>
        </g>
        <g transform="translate(0, 8)">
          <circle cx="1" cy="1" r="0.3"/>
          <circle cx="3" cy="1" r="0.3"/>
          <circle cx="5" cy="1" r="0.3"/>
          <circle cx="7" cy="1" r="0.3"/>
          <circle cx="9" cy="1" r="0.3"/>
        </g>
      </g>
    </g>
  </g>
</svg>