<?xml version="1.0" standalone="no"?>
<!DOCTYPE svg PUBLIC "-//W3C//DTD SVG 20010904//EN" "http://www.w3.org/TR/2001/REC-SVG-20010904/DTD/svg10.dtd">
<svg version="1.0" xmlns="http://www.w3.org/2000/svg" width="512.000000pt" height="512.000000pt"
    viewBox="0 0 512.000000 512.000000" preserveAspectRatio="xMidYMid meet">

    <g transform="translate(0.000000,512.000000) scale(0.100000,-0.100000)" fill="#000000" stroke="none">
        <path d="M1897 4603 c-4 -3 -7 -26 -7 -50 l0 -43 720 0 720 0 0 50 0 50 -713
0 c-393 0 -717 -3 -720 -7z" />
        <path d="M1740 2430 l0 -1970 130 0 130 0 0 448 c0 335 3 451 12 460 18 18
721 17 737 -1 7 -10 12 -150 13 -458 l3 -444 153 -3 152 -3 0 1161 c0 1147 0
1160 20 1180 19 19 33 20 205 20 l185 0 0 790 0 790 -870 0 -870 0 0 -1970z
m544 1704 c14 -13 16 -47 16 -218 0 -144 -3 -205 -12 -214 -17 -17 -259 -17
-276 0 -9 9 -12 70 -12 212 0 172 2 202 17 218 14 15 32 18 134 18 94 0 121
-3 133 -16z m457 6 c18 -10 19 -23 19 -218 0 -149 -3 -211 -12 -220 -17 -17
-259 -17 -276 0 -9 9 -12 70 -12 212 0 172 2 202 17 218 14 15 32 18 130 18
63 0 123 -5 134 -10z m465 -4 c17 -13 19 -30 22 -206 4 -254 13 -240 -156
-240 -86 0 -132 4 -140 12 -9 9 -12 70 -12 214 0 248 -9 234 155 234 80 0 117
-4 131 -14z m-918 -668 c9 -9 12 -71 12 -220 0 -195 -1 -208 -19 -218 -11 -5
-70 -10 -131 -10 -61 0 -120 5 -131 10 -18 10 -19 23 -19 218 0 149 3 211 12
220 8 8 53 12 138 12 85 0 130 -4 138 -12z m460 0 c9 -9 12 -71 12 -220 0
-195 -1 -208 -19 -218 -11 -5 -71 -10 -135 -10 -91 0 -118 3 -130 16 -14 13
-16 47 -16 218 0 144 3 205 12 214 8 8 53 12 138 12 85 0 130 -4 138 -12z
m467 -12 c14 -21 16 -54 13 -216 -3 -176 -5 -193 -22 -206 -30 -21 -249 -20
-270 2 -14 13 -16 47 -16 218 0 144 3 205 12 214 8 8 54 12 140 12 124 0 128
-1 143 -24z m-937 -652 c21 -15 22 -20 22 -218 0 -144 -3 -205 -12 -214 -17
-17 -259 -17 -276 0 -9 9 -12 70 -12 214 0 247 -9 234 150 234 79 0 111 -4
128 -16z m460 0 c21 -15 22 -20 22 -218 0 -144 -3 -205 -12 -214 -17 -17 -259
-17 -276 0 -9 9 -12 70 -12 214 0 247 -9 234 150 234 79 0 111 -4 128 -16z
m-450 -666 c9 -9 12 -71 12 -220 0 -195 -1 -208 -19 -218 -11 -5 -70 -10 -131
-10 -61 0 -120 5 -131 10 -18 10 -19 23 -19 220 0 188 2 210 18 219 25 15 255
14 270 -1z m460 0 c17 -17 17 -419 0 -436 -15 -15 -241 -17 -269 -2 -18 10
-19 23 -19 220 0 188 2 210 18 219 25 15 255 14 270 -1z" />
        <path d="M2100 3915 l0 -125 50 0 50 0 0 125 0 125 -50 0 -50 0 0 -125z" />
        <path d="M2560 3915 l0 -125 50 0 50 0 0 125 0 125 -50 0 -50 0 0 -125z" />
        <path d="M3020 3915 l0 -125 50 0 50 0 0 125 0 125 -50 0 -50 0 0 -125z" />
        <path d="M2100 3250 l0 -130 50 0 50 0 0 130 0 130 -50 0 -50 0 0 -130z" />
        <path d="M2560 3250 l0 -130 50 0 50 0 0 130 0 130 -50 0 -50 0 0 -130z" />
        <path d="M3020 3250 l0 -130 50 0 50 0 0 130 0 130 -50 0 -50 0 0 -130z" />
        <path d="M2100 2585 l0 -125 50 0 50 0 0 125 0 125 -50 0 -50 0 0 -125z" />
        <path d="M2560 2585 l0 -125 50 0 50 0 0 125 0 125 -50 0 -50 0 0 -125z" />
        <path d="M2100 1920 l0 -130 50 0 50 0 0 130 0 130 -50 0 -50 0 0 -130z" />
        <path d="M2560 1920 l0 -130 50 0 50 0 0 130 0 130 -50 0 -50 0 0 -130z" />
        <path d="M560 1895 l0 -1435 540 0 540 0 0 1435 0 1435 -540 0 -540 0 0 -1435z
m448 1213 c9 -9 12 -70 12 -214 0 -171 -2 -205 -16 -218 -23 -23 -245 -23
-268 0 -14 13 -16 47 -16 218 0 144 3 205 12 214 8 8 53 12 138 12 85 0 130
-4 138 -12z m460 0 c9 -9 12 -71 12 -220 0 -195 -1 -208 -19 -218 -11 -5 -70
-10 -132 -10 -158 0 -149 -15 -149 235 0 143 3 204 12 213 8 8 53 12 138 12
85 0 130 -4 138 -12z m-464 -664 c14 -13 16 -47 16 -218 0 -144 -3 -205 -12
-214 -17 -17 -259 -17 -276 0 -9 9 -12 70 -12 214 0 171 2 205 16 218 23 23
245 23 268 0z m457 6 c18 -10 19 -23 19 -218 0 -149 -3 -211 -12 -220 -17 -17
-259 -17 -276 0 -9 9 -12 70 -12 212 0 172 2 202 17 218 14 15 32 18 130 18
63 0 123 -5 134 -10z m-453 -672 c9 -9 12 -71 12 -220 0 -195 -1 -208 -19
-218 -11 -5 -71 -10 -135 -10 -91 0 -118 3 -130 16 -14 13 -16 47 -16 218 0
144 3 205 12 214 8 8 53 12 138 12 85 0 130 -4 138 -12z m460 0 c9 -9 12 -71
12 -220 0 -195 -1 -208 -19 -218 -11 -5 -71 -10 -135 -10 -91 0 -118 3 -130
16 -14 13 -16 47 -16 218 0 144 3 205 12 214 8 8 53 12 138 12 85 0 130 -4
138 -12z m-470 -664 c21 -15 22 -20 22 -218 0 -144 -3 -205 -12 -214 -17 -17
-259 -17 -276 0 -9 9 -12 70 -12 214 0 247 -9 234 150 234 79 0 111 -4 128
-16z m472 -4 c15 -23 13 -413 -2 -428 -17 -17 -259 -17 -276 0 -9 9 -12 70
-12 214 0 251 -10 237 163 232 91 -2 120 -6 127 -18z" />
        <path d="M820 2890 l0 -130 50 0 50 0 0 130 0 130 -50 0 -50 0 0 -130z" />
        <path d="M1280 2890 l0 -130 50 0 50 0 0 130 0 130 -50 0 -50 0 0 -130z" />
        <path d="M820 2230 l0 -130 50 0 50 0 0 130 0 130 -50 0 -50 0 0 -130z" />
        <path d="M1280 2230 l0 -130 50 0 50 0 0 130 0 130 -50 0 -50 0 0 -130z" />
        <path d="M820 1560 l0 -130 50 0 50 0 0 130 0 130 -50 0 -50 0 0 -130z" />
        <path d="M1280 1560 l0 -130 50 0 50 0 0 130 0 130 -50 0 -50 0 0 -130z" />
        <path d="M820 895 l0 -125 50 0 50 0 0 125 0 125 -50 0 -50 0 0 -125z" />
        <path d="M1280 895 l0 -125 50 0 50 0 0 125 0 125 -50 0 -50 0 0 -125z" />
        <path d="M3170 1585 l0 -1125 515 0 515 0 0 120 0 120 -27 11 c-110 41 -234
148 -285 245 -99 186 -69 437 71 596 79 89 211 158 334 173 l57 7 0 489 0 489
-590 0 -590 0 0 -1125z m500 855 c19 -19 20 -33 20 -208 0 -246 9 -232 -159
-232 -85 0 -131 4 -139 12 -9 9 -12 70 -12 212 0 172 2 202 17 218 14 15 32
18 135 18 105 0 120 -2 138 -20z m460 0 c19 -19 20 -33 20 -212 0 -164 -2
-194 -17 -210 -14 -16 -33 -18 -144 -18 -117 0 -129 2 -139 19 -6 12 -10 99
-10 215 0 239 -9 226 157 226 100 0 115 -2 133 -20z m-456 -672 c13 -18 16
-56 16 -210 0 -239 8 -228 -157 -228 -163 0 -153 -14 -153 227 0 115 4 202 10
214 10 17 22 19 140 19 122 0 130 -1 144 -22z m-4 -658 c19 -19 20 -33 20
-208 0 -246 9 -232 -159 -232 -85 0 -131 4 -139 12 -9 9 -12 70 -12 214 0 248
-10 234 157 234 100 0 115 -2 133 -20z" />
        <path d="M3487 2353 c-4 -3 -7 -62 -7 -130 l0 -123 50 0 50 0 0 130 0 130 -43
0 c-24 0 -47 -3 -50 -7z" />
        <path d="M3947 2353 c-4 -3 -7 -62 -7 -130 l0 -123 50 0 50 0 0 130 0 130 -43
0 c-24 0 -47 -3 -50 -7z" />
        <path d="M3480 1560 l0 -130 50 0 50 0 0 130 0 130 -50 0 -50 0 0 -130z" />
        <path d="M3480 895 l0 -125 50 0 50 0 0 125 0 125 -50 0 -50 0 0 -125z" />
        <path d="M4280 1619 c-113 -19 -235 -103 -294 -204 -68 -115 -74 -274 -15
-393 55 -112 156 -196 269 -225 l55 -14 3 -212 2 -211 -1970 0 -1970 0 0 -50
0 -50 2100 0 2100 0 0 50 0 50 -80 0 -80 0 2 211 3 212 55 14 c117 30 212 108
268 221 36 74 37 79 37 187 0 105 -2 114 -33 178 -85 172 -265 266 -452 236z" />
        <path d="M2100 870 l0 -410 280 0 280 0 0 410 0 410 -280 0 -280 0 0 -410z" />
    </g>
</svg>